<svg xmlns="http://www.w3.org/2000/svg" viewBox="0 0 24 24">
  <path fill="#ffffff" d="M12 .5C5.65.5.5 5.65.5 12c0 5.09 3.29 9.4 7.86 10.93.58.11.79-.25.79-.55 0-.27-.01-1.17-.02-2.12-3.2.69-3.88-1.55-3.88-1.55-.52-1.32-1.27-1.67-1.27-1.67-1.04-.71.08-.7.08-.7 1.15.08 1.75 1.18 1.75 1.18 1.02 1.75 2.67 1.24 3.32.95.1-.74.4-1.24.73-1.52-2.56-.29-5.26-1.28-5.26-5.68 0-1.26.45-2.29 1.18-3.1-.12-.29-.51-1.45.11-3.01 0 0 .96-.31 3.15 1.18a10.8 10.8 0 012.87-.39c.97 0 1.95.13 2.87.39 2.19-1.49 3.15-1.18 3.15-1.18.62 1.56.23 2.72.11 3.01.73.81 1.18 1.84 1.18 3.1 0 4.41-2.7 5.39-5.28 5.67.41.36.78 1.07.78 2.16 0 1.56-.01 2.82-.01 3.2 0 .3.21.67.8.55A11.5 11.5 0 0023.5 12C23.5 5.65 18.35.5 12 .5z"/>
</svg>