<svg xmlns="http://www.w3.org/2000/svg" viewBox="0 0 24 24">
  <rect width="100%" height="100%" rx="12" fill="#25D366"/>
  <path fill="#fff" d="M20.5 3.5A11.8 11.8 0 0012 .5 11.7 11.7 0 001.5 12c0 2 0.5 4 1.6 5.7L.5 23.5l5.4-2.1A11.8 11.8 0 0012 23.5 11.8 11.8 0 0023.5 12 11.8 11.8 0 0020.5 3.5zM12 21.5a9.4 9.4 0 01-5-1.4l-.4-.2-3.2 1.3 1.3-3.1-.3-.4A9.4 9.4 0 012.5 12 9.5 9.5 0 1112 21.5zM16.2 14.3c-.3-.2-1.9-.9-2.2-1-.3-.1-.5-.2-.7.2s-.8 1-.9 1.2c-.1.2-.2.3-.5.1-.6-.3-2.2-.8-3.7-2.3-1.4-1.4-1.9-2.7-2.1-3-.2-.4 0-.6.1-.8.1-.1.3-.3.5-.5.2-.2.3-.3.5-.5.2-.1.3-.2.5-.1.2.1.8.3 1 .4.2.1.3.1.4.1.1 0 .2-.1.3-.4.1-.3.5-1 .5-1.1.1-.2 0-.3 0-.5 0-.1-.8-1.9-1.1-2.6-.3-.6-.6-.5-.8-.6-.2-.1-.6-.2-1-.2-.3 0-.8 0-1.1 0-.3 0-.7.1-.9.4s-1.1 1.1-1.1 2.7 1.1 3.2 1.3 3.4c.2.2 2.2 3.6 5.7 5 .8.3 1.4.5 1.9.6.8.2 1.5.2 2 .2.6 0 1-.3 1.3-.6.2-.3.3-.6.3-.8 0-.2 0-.4-.3-.6z"/>
</svg>